<svg xmlns="http://www.w3.org/2000/svg" width="224.901" height="243.365" viewBox="0 0 224.901 243.365">
  <g id="Group_1890" data-name="Group 1890" transform="translate(0.5 0.001)" opacity="0.22">
    <g id="Group_1832" data-name="Group 1832" transform="translate(18.96 -0.001)">
      <path id="Path_2518" data-name="Path 2518" d="M625.778,500.924c2.107-7.645,4.213-15.038,6.163-22.471.979-3.732,1.547-7.574,2.578-11.29.3-1.069,1.476-1.964,2.394-2.778,8.715-7.732,7.463-4.25,5.894-15.558-2.661-19.179-5.482-38.338-8.188-57.511-.791-5.595-1.42-11.213-2.084-16.507,5.038-2.021,10-3.7,14.671-5.982,3.843-1.876,7.289-4.547,11.012-6.691a9.17,9.17,0,0,1,4.533-1.5,58.961,58.961,0,0,1,39.961,16.976c12.833,12.381,18.885,27.59,18.98,45.236.115,21.273.032,42.547.023,63.822,0,9.288-4.965,14.251-14.208,14.252q-39.809,0-79.619,0Zm32.676-70.147c0,4.87,3.985,7.207,7.916,4.423,5.52-3.91,10.371-4.16,15.823-.021,1.3.988,4.1.941,5.774.281,2.308-.908,2.737-3.567,1.968-5.749-2.408-6.822-.392-11.826,5.1-16.368,3.883-3.213,2.261-8.4-2.713-8.6-7.183-.288-11.3-3.357-13.378-10.121-.472-1.533-2.871-3.567-4.235-3.461-1.824.142-4.6,1.828-5.057,3.405-2.056,7.045-6.484,9.83-13.625,10.212-4.615.247-5.9,4.856-2.8,8.39,1.664,1.894,3.662,3.511,5.21,5.487a6.1,6.1,0,0,1,1.262,3.814C659.5,425.389,658.854,428.283,658.454,430.777Z" transform="translate(-516.791 -258.112)" fill="#034ea2" stroke="rgba(0,0,0,0)" stroke-width="1"/>
      <path id="Path_2519" data-name="Path 2519" d="M453.656,436.6c-.673-15.118-.367-29.4,6.749-42.735,9.015-16.885,22.71-27.49,41.26-31.938.818-.2,1.645-.359,2.474-.508,5.981-1.07,11.371-1.306,16.669,3.338,5.618,4.925,12.872,7.482,20.283,9.03,1.78.372,2.475,1.128,2.177,3.014-2.005,12.666-3.937,25.344-5.913,38.014-.042.272-.313.508-.55.873-7.969-6.257-16.465-8.059-25.447-2.549-8.826,5.415-10.437,14.179-9.734,23.459Z" transform="translate(-453.416 -258.166)" fill="#034ea2" stroke="rgba(0,0,0,0)" stroke-width="1"/>
      <g id="Path_2521" data-name="Path 2521" transform="translate(-481.023 -198.502)" fill="#fff">
        <path d="M 583.5385131835938 306.0195922851563 L 583.5284423828125 306.0195922851563 C 576.4497680664063 306.0184326171875 569.580078125 304.6345825195313 563.1101684570313 301.906494140625 C 556.8602905273438 299.2712097167969 551.244140625 295.4994201660156 546.4176025390625 290.6958618164063 C 541.5916748046875 285.8929748535156 537.80078125 280.3030090332031 535.1502075195313 274.0812683105469 C 532.4068603515625 267.6417236328125 531.0118408203125 260.8030395507813 531.0040283203125 253.7552490234375 C 530.9960327148438 246.6208801269531 532.3709716796875 239.7079315185547 535.090576171875 233.2084045410156 C 537.7178955078125 226.9293060302734 541.4855346679688 221.2920074462891 546.2886962890625 216.4530944824219 C 551.0911254882813 211.614990234375 556.690185546875 207.8153686523438 562.9303588867188 205.1597747802734 C 569.3880004882813 202.41162109375 576.26025390625 201.0127258300781 583.3560791015625 201.0019378662109 L 583.4393310546875 201.0018768310547 C 590.5504150390625 201.0018768310547 597.4415893554688 202.3848724365234 603.9213256835938 205.1124572753906 C 610.1822509765625 207.7479095458984 615.8032836914063 211.5232391357422 620.6282348632813 216.3335723876953 C 625.4532470703125 221.1439056396484 629.2420043945313 226.749755859375 631.8892822265625 232.9954223632813 C 634.629150390625 239.4595947265625 636.0222778320313 246.3362884521484 636.0299072265625 253.4344635009766 C 636.03759765625 260.5491638183594 634.656494140625 267.4447631835938 631.925048828125 273.9298095703125 C 629.2861328125 280.1949462890625 625.5032958984375 285.8191528320313 620.6814575195313 290.6461791992188 C 615.8639526367188 295.4688720703125 610.2506103515625 299.2542419433594 603.9973754882813 301.8970947265625 C 597.52490234375 304.6325988769531 590.6415405273438 306.0195922851563 583.5385131835938 306.0195922851563 Z" stroke="none"/>
        <path d="M 583.439453125 203.5018615722656 L 583.3599243164063 203.501953125 C 576.6010131835938 203.51220703125 570.056884765625 204.8439636230469 563.9093017578125 207.4601440429688 C 557.968017578125 209.988525390625 552.6365356445313 213.6067504882813 548.0630493164063 218.2142944335938 C 543.4878540039063 222.823486328125 539.8992309570313 228.1929016113281 537.3967895507813 234.1734008789063 C 534.80615234375 240.3647766113281 533.4963989257813 246.9521179199219 533.5040283203125 253.7524871826172 C 533.511474609375 260.4626159667969 534.8391723632813 266.9725341796875 537.4501953125 273.1014404296875 C 539.9740600585938 279.0256958007813 543.5844116210938 284.34912109375 548.1810913085938 288.9238891601563 C 552.7791137695313 293.4999694824219 558.1287231445313 297.0928955078125 564.0814208984375 299.6029052734375 C 570.242431640625 302.2007141113281 576.7854614257813 303.5184936523438 583.5279541015625 303.5195922851563 L 583.5385131835938 303.5195922851563 C 590.3053588867188 303.5195922851563 596.8612670898438 302.1989135742188 603.0241088867188 299.5942993164063 C 608.9786987304688 297.0776977539063 614.3244018554688 293.47265625 618.9127197265625 288.8793334960938 C 623.5053100585938 284.2817993164063 627.1080932617188 278.9255676269531 629.62109375 272.9593505859375 C 632.2221069335938 266.7840270996094 633.5372314453125 260.2158203125 633.5299072265625 253.4371795654297 C 633.5225830078125 246.6751098632813 632.1961669921875 240.1257629394531 629.5875244140625 233.9710388183594 C 627.0667724609375 228.0238952636719 623.4586181640625 222.6854553222656 618.8632202148438 218.1040344238281 C 614.2674560546875 213.5222473144531 608.9140014648438 209.926513671875 602.9514770507813 207.4166259765625 C 596.7803955078125 204.8190002441406 590.215576171875 203.5018615722656 583.439453125 203.5018615722656 M 583.439453125 198.5018920898438 C 613.8953857421875 198.5018920898438 638.4970703125 223.0218811035156 638.5299072265625 253.4317932128906 C 638.5628662109375 283.8967895507813 613.9825439453125 308.5195922851563 583.5384521484375 308.5195922851563 C 583.5347900390625 308.5195922851563 583.5316772460938 308.5195922851563 583.5279541015625 308.5195922851563 C 553.19580078125 308.5145874023438 528.53759765625 283.9738159179688 528.5040283203125 253.7580413818359 C 528.4698486328125 223.210205078125 552.9498291015625 198.5481567382813 583.352294921875 198.501953125 C 583.3802490234375 198.5018920898438 583.4114990234375 198.5018920898438 583.439453125 198.5018920898438 Z" stroke="none" fill="#034ea2"/>
      </g>
      <path id="Path_2522" data-name="Path 2522" d="M603.5,384.4h10.787l10.536,75.5c-5.436-11.281-15.376-13-26.122-12.119-2.754-8.782-2.466-17.187-.924-25.8,2.075-11.586,3.446-23.3,5.134-34.953C603.03,386.2,603.272,385.393,603.5,384.4Z" transform="translate(-506.066 -266.849)" fill="#034ea2" stroke="rgba(0,0,0,0)" stroke-width="1"/>
    </g>
    <g id="Group_1831" data-name="Group 1831" transform="translate(0 144.291)">
      <path id="Path_2520" data-name="Path 2520" d="M513.821,484.117c2.334-4.1,4.9-8.093,6.893-12.353.825-1.763.227-4.138.633-6.163.65-3.237.859-6.889,2.558-9.526,5.047-7.834,16.564-7.338,21.8.745,3.81,5.881,4.857,12.471,3.872,19.385-.144,1.012-.352,2.015-.594,3.385,5.355,0,10.389-.027,15.422.006,10.476.07,15.758,8.3,11.591,17.937a20.216,20.216,0,0,0-.472,3.008c-1.512,6.006-3.067,12-4.615,18a18.1,18.1,0,0,0-.861,3.227c-.424,6.763-5.47,12.049-12.184,12.136q-17.691.23-35.385-.041c-1.982-.03-3.989-1.117-5.905-1.908-1.664-.688-2.979-1.088-4.49.534a5.536,5.536,0,0,1-3.608,1.4c-5.788.143-11.583.1-17.375.052-3.283-.027-4.582-1.315-4.588-4.619q-.044-23.855,0-47.709c.008-3.239,1.361-4.525,4.67-4.554,5.37-.047,10.742-.02,16.113-.014,4.766,0,5.623.861,5.761,5.7.012.4.068.8.1,1.2Zm-.756,38.523c3.177,1.254,5.73,2.278,8.3,3.262a5.291,5.291,0,0,0,1.816.427c11.48.016,22.963.113,34.437-.144a5.79,5.79,0,0,0,4.226-3.032c.571-1.385-.377-3.459-.865-5.173-.123-.43-1.035-.635-.867-.541,1.941-1.676,4.433-2.817,4.953-4.55.559-1.863-.734-4.28-1.182-6.295.986-1.014,3.2-2.282,3.611-3.986.442-1.824-.811-4.058-1.365-6.282,2.175-.767,4.39-2.431,3.669-5.743s-3.546-3.413-6.289-3.4c-4.529.021-9.057,0-13.586-.008-3.516,0-7.032,0-10.7,0,.951-3.914,1.812-7.376,2.631-10.848a21.492,21.492,0,0,0-1.387-13.285c-1.476-3.629-4.4-5.458-7.25-4.783-2.958.7-4.622,3.015-4.244,7.138a21.354,21.354,0,0,1-3.731,14.312c-1.516,2.274-2.855,4.669-4.213,7.044-1.682,2.942-3.423,5.766-6.659,7.347a2.932,2.932,0,0,0-1.248,2.22C513.034,505.265,513.065,514.21,513.065,522.64Z" transform="translate(-446.619 -435.434)" fill="#034ea2" stroke="rgba(0,0,0,0)" stroke-width="1"/>
      <path id="Path_2523" data-name="Path 2523" d="M702.856,450.581c-5.088-4.246-9.776-4.11-14.8.1,2.539-6.406.654-11.12-4.724-14.987,6.27-.057,10.68-2.044,11.944-9.006,1.894,6.171,5.468,9.438,12.273,8.844C702.6,439.547,699.974,444.024,702.856,450.581Z" transform="translate(-518.988 -426.692)" fill="#034ea2" stroke="rgba(0,0,0,0)" stroke-width="1"/>
      <rect id="Rectangle_574" data-name="Rectangle 574" width="32.503" height="7.51" rx="3.755" transform="translate(0 51.113)" fill="#034ea2" stroke="rgba(0,0,0,0)" stroke-width="1"/>
      <rect id="Rectangle_575" data-name="Rectangle 575" width="32.503" height="7.51" rx="3.755" transform="translate(0 81.503)" fill="#034ea2" stroke="rgba(0,0,0,0)" stroke-width="1"/>
      <rect id="Rectangle_576" data-name="Rectangle 576" width="17.014" height="7.51" rx="3.755" transform="translate(15.489 66.367)" fill="#034ea2" stroke="rgba(0,0,0,0)" stroke-width="1"/>
    </g>
  </g>
</svg>
